<svg xmlns="http://www.w3.org/2000/svg" viewBox="0 0 500 500" xmlns:bx="https://boxy-svg.com">
	<path class="s0" d="M 273.467 495.471 C 245.457 495.471 214.176 495.471 185.216 493.097 C 184.267 484.076 198.917 388.804 204.614 350.824 C 185.149 350.824 34.14 369.231 16.139 296.702 C -0.073 259.169 18.342 139.356 20.93 130.54 C 35.461 81.129 48.422 40.339 95.422 16.601 C 122.321 -0.001 238.99 4.732 306.405 6.631 C 304.981 34.641 297.665 60.753 294.816 87.814 C 249.241 87.814 207.463 85.44 166.16 89.237 C 150.967 90.662 131.968 102.872 123.907 115.824 C 102.643 149.991 103.474 194.276 101.593 234.985 C 100.402 260.783 110.139 268.217 133.402 267.743 C 153.341 267.268 216.767 268.996 218.515 268.669 C 219.602 268.464 234.049 173.743 239.271 139.086 C 321.877 139.086 408.334 139.086 490.465 139.086 C 488.467 165.197 486.14 190.834 483.767 217.42 C 425.372 218.369 369.352 218.369 315.705 218.369 C 312.382 239.257 310.008 252.077 307.634 268.217 C 343.715 268.217 379.322 268.217 417.776 268.217 C 414.453 297.652 411.13 323.288 408.282 351.298 C 369.352 351.298 332.322 351.298 294.816 351.298 C 287.695 397.349 280.114 451.319 273.467 495.471 Z" style="stroke-width: 29px;" id="object-0"></path>
</svg>